<svg width="700" height="641" viewBox="0 0 700 641" fill="none" xmlns="http://www.w3.org/2000/svg">
<g clip-path="url(#clip0_2_31)">
<path d="M592.975 553.1C598.375 548.3 598.675 548.2 596.175 551.7C593.075 556.001 575.175 573.4 568.475 578.6C529.275 608.9 469.675 630.9 405.675 638.6C384.875 641.1 332.776 641.6 310.276 639.6C288.776 637.6 266.875 634.2 248.675 629.8C241.375 628.1 234.775 626.7 233.975 626.6C233.175 626.5 232.275 626.3 231.975 626C231.674 625.7 227.874 624.4 223.475 623.2C209.875 619.2 186.075 610.1 173.475 603.9C161.575 598.1 159.875 597.2 146.475 589.3C131.275 580.4 111.175 564.6 104.375 556.3L100.776 551.9L109.675 558.3C154.075 590.1 219.175 612.9 291.475 621.9C327.675 626.4 355.775 626.9 393.975 623.5C457.175 617.9 518.176 600.7 559.076 577C567.876 571.8 586.675 558.6 592.975 553.1Z" fill="#42D877"/>
<path d="M169.975 354C170.275 354 172.276 356 174.276 358.5L177.975 362.9L160.276 371.9C135.876 384.2 123.775 392.4 110.675 405.3C94.3752 421.4 86.975 438.7 86.975 460.7C86.975 476.3 91.5752 490.2 101.975 505.8C131.875 551 198.275 583 286.975 594.9C312.475 598.4 330.575 599.3 362.875 598.7C399.775 598.1 416.175 596.3 451.975 589C459.975 587.4 470.475 585.4 475.475 584.5C496.875 580.7 540.176 559.5 565.276 540.7C573.176 534.7 583.476 523.7 591.276 513.1C605.576 493.6 612.075 473.6 610.675 453C609.575 436.1 602.675 422.6 587.076 406.9C574.876 394.8 560.875 385.5 537.975 374.3C513.875 362.6 513.975 362.7 513.975 361.6C513.976 361.099 514.976 359.899 516.276 358.8C517.976 357.2 519.375 357 522.475 357.5C524.575 357.8 526.875 358.5 527.475 358.9C527.975 359.4 533.675 361.4 539.975 363.4C559.275 369.6 581.176 383.3 597.076 399C638.375 440.1 635.275 485.8 587.576 536.8C558.976 567.3 505.975 592 442.975 603.9C407.575 610.6 384.675 612.4 342.975 611.7C309.075 611.2 297.175 610.1 269.475 605.4C212.775 595.6 160.776 575.2 126.076 549C117.076 542.2 99.5752 524.4 92.1752 514.5C85.1752 505.1 75.4756 485.3 73.5756 476.3C71.6756 467.9 71.4756 453.4 73.0756 445.8C75.1756 435.8 81.8753 420.6 87.6752 412.9C104.575 390.4 129.675 371.6 161.975 357.4C166.073 355.501 169.672 354.001 169.975 354Z" fill="#42D877"/>
<path d="M306.175 567.6C312.975 553.9 313.675 553.001 315.975 553.4C317.375 553.7 322.775 554.2 327.975 554.5C333.175 554.8 340.476 555.3 344.276 555.6L350.975 556.2V568C350.975 574.5 350.675 581.2 350.375 583L349.675 586.2L337.076 585.5C319.876 584.6 299.676 583.1 299.276 582.6C299.076 582.399 302.175 575.599 306.175 567.6Z" fill="#42D877"/>
<path d="M439.276 541.4C440.278 541.402 449.176 547.601 458.975 555C468.874 562.399 476.774 568.599 476.576 568.7C475.275 570 425.386 581.698 424.576 580.9C423.576 579.901 406.981 551.61 406.975 550.9C406.975 550.6 409.576 549.7 412.776 549C415.876 548.4 422.775 546.4 427.975 544.6C433.175 542.7 438.276 541.3 439.276 541.4Z" fill="#42D877"/>
<path d="M231.675 527C232.275 527 237.776 529.4 243.776 532.3C249.676 535.3 256.175 538.2 257.975 538.9L261.375 540.1L256.975 544.3C254.475 546.6 248.275 552.4 243.076 557C237.876 561.7 232.776 566.3 231.776 567.2C230.776 568.2 229.475 569 228.875 569C225.276 569 182.983 553.203 182.975 551.9C182.975 551 229.872 527.102 231.675 527Z" fill="#42D877"/>
<path d="M314.375 429.1C312.875 430.5 309.675 431.5 302.875 432.6C283.775 435.6 268.876 440.3 253.776 448.2C237.276 456.8 230.175 465.3 229.175 477.7C228.575 485.5 230.076 491 234.776 497.9C241.876 508.5 257.675 518.4 277.975 525C331.275 542.5 403.276 537.6 446.576 513.5C450.476 511.3 456.476 506.6 460.576 502.6C466.375 496.7 467.875 494.5 469.375 489.6C475.575 469.9 461.575 453 427.576 439.1C424.876 438 424.776 437.8 426.576 436.6C428.175 435.4 429.076 435.5 433.175 437.1C451.175 444.2 465.776 455.1 473.276 467.2C475.876 471.4 478.075 481 477.375 485C474.175 503.2 452.976 519.2 418.076 529.9C410.676 532.2 398.576 535.2 391.076 536.7C378.376 539.2 375.575 539.4 349.475 539.4C324.275 539.5 320.175 539.3 308.475 537.2C255.875 527.7 222.476 505.8 222.576 481C222.676 473.4 224.476 468.7 230.076 461.4C240.476 447.8 265.175 435.8 293.975 430.1C306.975 427.6 308.575 427.3 312.975 427.1L316.375 427L314.375 429.1Z" fill="#42D877"/>
<path d="M491.375 497C491.475 497 503.475 498.4 517.975 500C532.575 501.7 549.175 503.6 554.975 504.2C560.773 504.8 565.672 505.399 565.875 505.6C566.075 505.8 564.675 508.5 562.875 511.6C559.175 518.1 551.476 526.2 542.076 533.5L535.576 538.4L522.576 533.8C515.376 531.2 502.275 526.6 493.475 523.5C484.678 520.401 477.18 517.502 476.776 517.2C476.376 516.8 478.675 513.9 481.875 510.6C485.175 507.4 488.575 503 489.576 500.9C490.476 498.7 491.375 497 491.375 497Z" fill="#42D877"/>
<path d="M128.375 477.6C129.075 474.1 129.076 474.1 133.276 474.5C135.576 474.8 144.676 475.7 153.475 476.5C171.075 478.2 194.976 480 199.076 480C201.575 480 201.775 480.3 202.175 486.3C202.475 489.7 203.676 494.4 204.776 496.7L206.875 500.7L202.675 501.3C200.375 501.6 184.175 503.9 166.576 506.5C149.076 509 134.675 511 134.475 510.8C134.374 510.597 132.974 507.298 131.475 503.5C128.475 496.1 127.075 484.4 128.375 477.6Z" fill="#42D877"/>
<path d="M490.975 378.5C491.675 377.6 492.775 377.1 493.375 377.4C493.976 377.601 498.275 379.5 502.975 381.6C539.275 397.4 568.776 418 581.076 436.1C588.576 447.1 592.975 458 592.875 465C592.875 466.9 591.876 471.6 590.576 475.5L588.276 482.5L587.576 475.5C585.976 460.3 583.275 451.7 576.675 442C570.275 432.3 557.475 420.1 543.875 410.7C529.775 401 496.475 382 493.375 382C492.875 382 491.876 381.6 491.076 381.1C489.876 380.3 489.775 379.9 490.975 378.5Z" fill="#42D877"/>
<path d="M197.975 383.4C210.075 378.401 209.276 378.7 208.776 380C208.576 380.6 203.975 383 198.475 385.4C181.775 392.501 145.975 418.1 130.875 433.7C119.275 445.7 112.975 457.5 109.975 473.3C109.275 476.5 108.675 479 108.375 478.8C108.175 478.599 107.375 475.7 106.475 472.4C105.175 467.1 105.175 465.8 106.475 460.5C109.675 447.8 120.176 432.3 132.776 421.4C148.476 407.9 172.975 393.6 197.975 383.4Z" fill="#42D877"/>
<path d="M544.375 430.1C544.876 430 548.176 433 551.776 436.7C557.776 443 563.275 452.2 565.475 459.7C566.275 462.4 565.875 462.5 548.975 464C542.075 464.6 527.775 466 517.076 467.1C506.376 468.1 497.075 469 496.375 469C495.775 469 494.475 466.9 493.475 464.4C492.575 461.9 490.176 457.8 488.276 455.3C486.376 452.8 484.976 450.701 485.175 450.5C485.875 449.9 542.975 430.2 544.375 430.1Z" fill="#42D877"/>
<path d="M178.475 415.2C188.775 408.4 190.675 408.5 204.475 416.7C209.975 420 218.876 425.3 224.276 428.4L234.076 434.2L226.776 439.2C222.776 441.9 218.375 445.2 216.975 446.5L214.475 448.9L207.475 446.9C203.675 445.8 192.875 442.9 183.475 440.4C155.175 432.9 155.675 433 157.175 431.3C158.975 429.1 169.375 421.2 178.475 415.2Z" fill="#42D877"/>
<path d="M470.776 391C470.981 391.002 475.479 392.601 480.776 394.6C486.076 396.6 491.775 398.9 493.375 399.7L496.175 401.2L476.475 414.2L456.875 427.2L449.375 423.9C445.176 422.101 441.577 420.201 441.276 419.7C441.076 419.3 442.975 416.7 445.675 414C450.275 409.3 470.176 391.1 470.776 391Z" fill="#42D877"/>
<path d="M291.475 386.4C291.975 386.6 294.375 391.6 296.675 397.5C299.075 403.499 300.575 408.699 300.175 409.1C299.775 409.5 293.076 411.4 285.276 413.3L271.076 416.7L268.776 414.1C267.476 412.6 265.176 409.8 263.576 407.7C262.076 405.6 258.575 401.5 255.975 398.7L251.076 393.5L254.276 392.7C258.877 391.4 290.27 386.201 291.475 386.4Z" fill="#42D877"/>
<path d="M369.675 383.4C375.475 383.7 383.575 384 387.675 384H394.975L393.475 387.7C391.975 391.2 389.975 393.501 381.475 400.9L377.675 404.3L367.076 404.1C361.277 404 356.478 403.8 356.375 403.7C356.175 403.4 357.976 387.6 358.576 385.1L359.076 382.7L369.675 383.4Z" fill="#42D877"/>
<path d="M372.076 358C378.875 358 389.875 358.5 396.475 359C416.875 360.7 423.975 362 423.975 364C423.975 367.5 421.975 367.9 409.475 366.4C402.875 365.7 389.276 364.8 379.276 364.4C369.176 364 360.975 363.4 360.975 363.1C360.975 362.799 360.675 361.5 360.375 360.2C359.775 358 359.776 358 372.076 358Z" fill="#42D877"/>
<path fill-rule="evenodd" clip-rule="evenodd" d="M352.576 -1C353.176 -0.999747 356.476 0.199836 359.975 1.59961C397.875 16.9996 437.575 49.2 460.675 83.5C469.175 96.1 480.376 119.9 487.276 140C488.176 142.5 492.975 156.4 497.975 171C503.075 185.6 509.575 204.5 512.475 213C520.175 235.6 524.576 246.5 529.076 254.6C531.175 258.499 532.975 262.199 532.975 262.8C532.975 264.7 513.875 284 507.475 288.7L501.475 293L500.375 286.8C499.675 283.3 497.676 276.6 495.776 271.9C483.276 241.1 445.675 198.2 412.475 176.9C391.075 163.3 363.576 154.7 346.076 156.4C336.676 157.2 323.075 161.4 311.175 167C285.275 179.3 261.276 199.2 241.776 224.5C240.576 226.1 238.475 228.6 237.175 230C233.275 234.2 220.075 254.5 214.975 264.3C207.475 278.5 205.675 284.9 206.175 295C206.675 305.2 208.176 308.9 217.576 323.2C222.076 330 227.976 337.1 235.076 344.2C241.075 350.2 245.375 355 244.675 355C241.975 355 225.976 348.6 218.076 344.4C187.976 328.4 162.775 300.2 162.475 282.2C162.375 275.7 162.475 275.4 169.875 261.1C180.375 240.6 190.775 214.4 205.175 172C222.075 122.3 231.075 100.8 242.475 83C261.475 53.3 289.375 28.9 324.675 11C336.475 5.1 350.276 -0.9 352.576 -1ZM353.975 16C244.475 48.5001 230.975 145.5 217.475 185.5C203.975 225.5 188.475 260.5 180.475 277.5C172.475 294.5 191.475 310 191.475 309.5C188.975 285 188.975 287.5 226.975 227C264.973 166.503 309.47 142.502 309.975 141.5C302.375 72.3004 335.642 28.1669 353.975 16ZM434.475 100.5C448.075 150.9 482.808 206.5 498.475 228C485.675 160.4 450.475 114.833 434.475 100.5Z" fill="#42D877"/>
<path d="M358.776 261.7C361.376 260.2 361.475 260.201 366.975 265.4C369.975 268.3 375.376 272.3 378.776 274.3C394.176 283.3 406.176 284.3 418.776 277.7C422.776 275.7 425.975 274.3 425.975 274.7C425.975 277.501 413.975 297.299 408.375 303.6C401.775 311 399.775 313 394.576 317.8C388.876 322.9 379.275 330 373.975 332.8C369.975 335 356.777 340.199 356.375 339.7C355.475 338.8 354.775 293.301 355.475 278.9C356.175 263.5 356.176 263.3 358.776 261.7Z" fill="#42D877"/>
<path d="M424.276 217.1C424.775 217.001 423.875 219.301 422.276 222.1C418.676 228.7 410.376 237.1 404.776 239.8C399.276 242.5 392.275 242.6 381.975 240.1L374.475 238.4L380.975 234.1C393.675 225.8 411.376 218.9 424.276 217.1Z" fill="white"/>
<path d="M279.975 216.7C279.975 215.2 287.375 216.1 295.175 218.6C304.275 221.5 316.975 227.5 323.875 232.3L328.375 235.4L322.375 236.7C312.676 238.9 304.576 239.4 300.576 238C295.976 236.5 287.176 228.5 283.076 222.2C281.376 219.501 279.975 217.001 279.975 216.7Z" fill="white"/>
<path d="M695.276 185.2C697.876 185.1 699.975 185.2 699.975 185.4C699.965 185.61 692.469 192.705 683.276 201.1C673.976 209.5 663.375 219.4 659.475 223.1C655.675 226.8 650.075 231.8 647.175 234.3C641.175 239.3 640.675 239.5 616.576 240.6C603.676 241.3 602.576 241.5 599.576 243.9C595.076 247.6 586.175 255.9 572.475 269.1C562.175 279 526.675 311.6 510.375 326C499.475 335.7 474.875 358 462.975 369C456.075 375.3 441.875 388.101 431.475 397.4C420.975 406.7 409.575 417.1 405.975 420.5C402.375 423.9 396.876 429.1 393.576 432.1C383.776 441.1 370.975 458 370.975 462C370.975 464.2 374.675 462.8 380.375 458.5C383.675 456 386.675 454.001 387.175 454C388.475 454 389.275 458.8 388.475 462.6C385.775 477 376.775 485.7 357.975 492C349.874 494.7 299.675 505.4 297.975 504.8C296.478 504.295 309.675 479 311.375 479C311.875 479 313.576 480.2 315.076 481.6C317.275 483.7 318.375 484.1 320.975 483.5C322.675 483.1 324.376 482.2 324.576 481.5C324.875 480.8 324.375 477.4 323.475 474C322.575 470.6 321.776 464.4 321.776 460.1C321.676 453.7 322.076 451.6 324.375 446.9C327.675 440.3 334.775 432.6 340.375 429.8C344.475 427.7 353.276 426.9 355.576 428.3C356.375 428.7 354.375 431.4 350.076 435.7C342.676 443.3 337.176 451.9 336.276 457.4C335.576 461.6 337.476 462.3 340.576 458.9C344.676 454.4 354.776 447.1 361.276 444C364.976 442.3 368.576 440.3 369.276 439.7C369.876 439 371.875 437.4 373.475 436.2C375.175 434.9 381.875 428.6 388.475 422.2C395.075 415.7 407.575 404.2 416.375 396.5C438.175 377.2 444.175 371.9 453.975 363C458.675 358.7 466.775 351.5 471.975 347C482.075 338.1 483.975 336.5 499.475 322.4C504.975 317.4 516.675 307.6 525.475 300.5C534.275 293.4 545.275 283.9 549.975 279.5C554.675 275 568.175 263.1 579.975 252.9C591.771 242.804 601.668 234.306 601.975 233.9C602.275 233.6 610.775 226.6 620.975 218.4C648.875 196 656.875 189.2 656.375 188.6C656.176 188.3 656.275 188.2 656.675 188.5C656.975 188.8 658.075 188.3 658.975 187.5C660.175 186.4 664.075 186 675.475 185.7C683.775 185.6 692.576 185.3 695.276 185.2Z" fill="white"/>
<path d="M667.175 129.1C667.475 129 666.376 132.7 664.776 137.2C663.076 141.8 659.475 152.2 656.675 160.3L651.475 175.1L633.675 187.3L634.375 183.9C636.275 173.5 636.275 173 634.675 173C633.775 173 632.875 173.9 632.475 174.9C631.274 178.802 613.175 201.1 604.375 209.5C602.075 211.7 598.075 215 595.475 216.9L590.675 220.4L591.276 217.4C591.576 215.7 592.775 207.4 593.975 198.9C595.075 190.4 596.476 182.1 597.076 180.5C597.876 178.1 603.976 173.3 627.576 156.5C661.174 132.701 666.175 129.2 667.175 129.1Z" fill="white"/>
</g>
<defs>
<clipPath id="clip0_2_31">
<rect width="700" height="641" fill="white"/>
</clipPath>
</defs>
</svg>
