<svg width="332" height="361" viewBox="0 0 332 361" fill="none" xmlns="http://www.w3.org/2000/svg">
<path fill-rule="evenodd" clip-rule="evenodd" d="M125.79 213.704C154.206 223.177 197.29 220.941 218.47 208.836C233.204 200.482 248.266 185.68 250.831 177.128C252.213 172.523 253.199 150.616 252.936 130.881L252.674 113.448L250.569 107.527C247.674 99.3698 242.741 89.5677 238.071 82.5287C232.941 74.7662 223.272 63.9773 218.799 61.0168C205.183 52.0043 190.909 46.4781 176.767 44.7677C161.112 42.7942 145.063 45.2941 129.605 52.1358C117.568 57.4643 111.188 61.9377 103.558 70.2923C92.3758 82.7256 85.5349 96.1461 81.0621 114.5C79.615 120.684 79.4176 122.658 79.4176 134.499C79.4176 153.248 80.5361 173.509 81.6543 176.799C86.1929 189.693 107.767 207.652 125.79 213.704ZM113.95 162.129L109.543 160.024C104.15 157.458 99.6112 153.05 97.309 148.117C95.5988 144.433 95.5333 144.038 95.5991 132.197C95.5991 122.855 95.8617 119.039 96.7168 115.75C99.2163 106.475 106.913 99.3039 116.516 97.3304C118.03 97.0672 140.985 96.804 167.558 96.8698C215.64 97.0013 215.904 97.0017 219.719 98.4489C226.955 101.146 232.94 107.132 235.769 114.435C237.348 118.645 237.413 137.262 235.769 143.183C233.532 151.537 229.652 156.34 222.285 159.958L217.878 162.129H113.95Z" fill="#42D877"/>
<path d="M75.5366 224.296C77.0494 224.756 77.6415 224.493 79.812 222.191C81.2591 220.743 84.2195 218.244 86.4559 216.599L90.5342 213.573L80.8649 207.85C75.5373 204.758 69.5517 201.271 67.5123 200.087L63.8946 198.047L54.2908 205.481C49.0288 209.56 44.0299 213.375 43.2405 213.967C41.8593 214.954 41.8595 214.954 44.0299 215.678C45.2141 216.007 52.4494 217.981 60.0135 220.02C67.6428 222.059 74.6145 223.967 75.5366 224.296Z" fill="#42D877"/>
<path d="M256.093 224.296C257.606 224.362 289.772 214.757 289.509 214.362C289.375 214.097 284.639 210.612 278.918 206.534C267.605 198.443 267.473 198.311 266.552 199.231C266.157 199.56 260.895 202.718 254.712 206.205C248.597 209.691 243.27 212.782 243.004 213.046C242.741 213.309 243.662 214.297 245.043 215.283C246.49 216.204 249.385 218.572 251.555 220.612C253.791 222.65 255.829 224.294 256.093 224.296Z" fill="#42D877"/>
<path d="M154.206 290.213C195.645 293.042 236.098 280.542 248.398 261.201C254.581 251.465 253.2 239.229 244.846 230.282C241.689 226.927 234.321 221.533 229.586 219.099C228.073 218.375 226.692 217.717 226.626 217.783C226.493 217.784 224.981 218.573 223.271 219.559L220.114 221.204L224.258 223.309C243.333 232.716 249.516 246.531 240.176 259.162C231.822 270.477 209.063 280.081 183.871 282.779C175.649 283.7 153.679 283.7 146.51 282.845C119.673 279.49 96.9797 269.096 90.6652 257.189C87.7711 251.728 87.1792 245.281 89.1525 240.742C91.7177 234.756 101.058 226.532 109.478 222.717L112.24 221.533L109.214 219.888C105.465 217.915 104.347 218.178 98.164 221.993C91.7837 225.941 85.2061 232.914 82.5093 238.571C80.6676 242.584 80.4043 243.703 80.4043 248.965C80.4043 257.254 82.5749 261.596 90.1391 268.833C102.834 280.805 125.198 288.239 154.206 290.213Z" fill="#42D877"/>
<path d="M29.7563 263.767C31.4668 263.767 63.9596 259.425 67.0518 258.767C68.6302 258.438 68.7616 258.241 68.1039 256.531C67.7751 255.478 67.578 252.386 67.7095 249.623C67.8406 246.937 67.9062 244.707 67.9067 244.689C67.8695 244.687 60.0564 244.228 50.4759 243.703C40.8726 243.176 31.3348 242.716 29.2957 242.716H25.4808V248.899C25.4808 253.241 25.8755 256.333 26.7963 259.425C27.9803 263.24 28.3751 263.767 29.7563 263.767Z" fill="#42D877"/>
<path d="M306.018 260.609C306.61 258.57 307.268 253.702 307.465 249.755L307.86 242.716L302.006 242.847C292.6 242.979 270.762 243.966 267.736 244.36L264.908 244.755V249.492C264.908 252.123 264.644 255.149 264.316 256.333C263.592 258.899 262.015 258.438 283.325 261.398C292.533 262.714 301.149 263.898 302.466 264.096L304.834 264.425L306.018 260.609Z" fill="#42D877"/>
<path d="M74.8788 304.554C77.2467 305.409 77.3785 305.343 81.1276 302.449C83.2982 300.804 88.3634 297.12 92.3758 294.16L99.8084 288.897L95.4674 286.463C93.0995 285.147 89.2844 282.581 86.9164 280.805C84.5503 279.03 82.5779 277.65 82.5093 277.647C82.1121 277.912 57.9084 288.765 54.6197 290.147L50.8048 291.857L55.0803 294.62C59.4214 297.449 70.5373 303.041 74.8788 304.554Z" fill="#42D877"/>
<path d="M255.305 305.08C257.214 305.473 282.141 292.581 281.22 291.726C281.086 291.593 275.101 288.962 267.868 285.805C260.633 282.647 253.529 279.556 252.081 278.898L249.385 277.779L244.78 281.134C242.215 283.042 238.466 285.41 236.427 286.463C234.388 287.581 232.678 288.568 232.677 288.765C232.746 289.359 254.25 304.881 255.305 305.08Z" fill="#42D877"/>
<path d="M180.385 310.803C181.963 321.263 181.437 320.474 186.173 320.013C198.668 318.764 213.924 316.922 214.128 316.724C214.391 316.461 211.957 311.922 206.893 303.37C204.788 299.818 203.275 297.975 202.552 298.041C201.959 298.107 198.605 298.699 195.185 299.357C191.764 299.949 186.634 300.738 183.805 301.001C179.53 301.33 178.741 301.593 179.004 302.514C179.201 303.106 179.793 306.791 180.385 310.803Z" fill="#42D877"/>
<path d="M117.634 316.658C118.357 317.25 149.797 320.539 150.259 320.079C150.326 320.007 150.852 316.128 151.443 311.461C152.035 306.725 152.562 302.58 152.693 302.185C152.89 301.659 151.311 301.264 148.286 301.001C145.655 300.738 140.721 300.08 137.301 299.554C133.881 299.028 130.46 298.436 129.737 298.304C128.619 298.041 127.5 299.489 122.896 307.185C119.873 312.312 117.507 316.519 117.634 316.658Z" fill="#42D877"/>
<path fill-rule="evenodd" clip-rule="evenodd" d="M141.248 340.801C153.416 341.92 182.226 341.723 194.856 340.407C244.846 335.21 286.943 318.237 311.609 293.37C325.422 279.424 332 264.688 332 247.715C332 234.558 329.237 225.612 321.673 214.231C313.319 201.6 301.019 191.272 284.18 182.719C272.735 176.996 272.67 176.864 279.05 170.286C283.588 165.615 286.154 161.01 287.272 155.484C287.732 153.313 287.93 143.313 287.798 128.183L287.601 104.238L285.825 100.62C284.838 98.5803 282.996 95.7514 281.681 94.2383C278.918 91.0149 272.472 86.607 268.197 85.0939C265.303 84.0414 265.039 83.7125 261.685 77.1342C259.777 73.3845 256.423 67.8587 254.186 64.8984C250.042 59.3066 241.294 50.3596 236.295 46.544C234.651 45.3599 233.467 44.0439 233.598 43.6492C233.797 43.2531 236.888 39.0437 240.57 34.3082C246.293 26.875 247.543 25.6241 249.516 25.2294C252.805 24.6373 256.948 21.3484 258.396 18.1908C263.197 7.53367 252.608 -3.51871 242.215 1.21774C235.9 4.04649 233.73 9.70434 235.703 18.1247C235.966 19.1115 234.256 21.677 229.388 27.8608L222.745 36.2156L220.969 34.9661C214.523 30.3611 197.355 23.8482 186.831 22.0063C178.872 20.559 155.916 20.5586 146.642 21.9401C137.564 23.3216 127.632 26.7428 117.634 31.8741C111.123 35.2286 109.215 35.9523 108.623 35.3605C108.228 34.8996 105.333 31.1502 102.176 27.0719C96.7167 19.9014 96.4541 19.5063 97.1118 17.5985C99.414 11.02 96.1905 3.65217 89.8102 0.954986C79.1546 -3.45238 68.3673 8.257 73.6949 18.4536C75.4709 21.7428 78.4311 24.0453 82.3776 25.0321C84.7455 25.69 85.7322 26.6769 91.7835 34.571C95.4663 39.3723 98.4916 43.5819 98.4929 43.9782C98.4929 44.3071 95.9934 46.6757 92.9019 49.3071C82.1803 58.4512 74.4183 68.0556 69.2878 78.8443C66.9856 83.7124 66.9199 83.7784 61.5263 86.5413C54.8829 90.028 49.8183 94.9622 46.9899 100.62L44.8849 104.896L44.6877 128.644C44.4904 148.445 44.6218 153.116 45.5427 156.866C46.924 162.984 49.4237 167.26 53.8964 171.339C59.3557 176.273 59.224 177.457 52.6464 180.285C37.1232 187.061 22.1917 198.705 13.0487 211.139C5.87922 220.809 2.4592 228.901 0.749016 240.282C-2.47403 261.464 7.65538 283.239 28.7696 300.607C39.0307 309.093 58.3032 319.816 73.2344 325.473C93.6909 333.236 117.042 338.499 141.248 340.801ZM269.841 309.159C236.558 325.408 196.829 332.841 154.271 330.802C139.735 330.144 134.012 329.552 121.515 327.513C75.4711 319.947 34.8868 299.028 18.9031 274.555C4.76136 252.846 8.24755 229.361 28.5724 209.757C36.597 202.06 42.2539 198.376 58.4346 190.614C70.8006 184.627 72.248 183.772 71.8533 182.588C70.6694 178.378 69.5511 172.259 69.5511 169.299C69.5511 165.944 69.551 165.944 66.8546 165.089C65.3418 164.563 62.8421 162.852 61.2635 161.274C56.6593 156.669 56.3958 155.155 56.3958 130.552V109.434L58.1057 106.014C59.0266 104.172 60.7369 101.803 61.8551 100.882C64.4862 98.6457 69.8144 96.1459 72.9717 95.6196C75.4052 95.2249 75.5372 94.9617 79.0232 87.857C84.1538 77.2658 89.8762 69.0426 97.5062 61.4774C113.095 45.8206 135.131 35.5582 157.692 33.3215C170.124 32.0715 184.726 33.9132 197.487 38.1892C203.933 40.4259 217.22 47.0048 222.679 50.7545C229.849 55.6884 240.834 66.8058 245.635 74.0421C247.806 77.3314 251.292 83.4498 253.462 87.5943C257.212 95.0934 257.344 95.2249 259.843 95.6196C266.552 96.7379 273.919 102.461 275.367 107.593C276.551 111.803 276.287 150.286 275.103 154.3C273.853 158.576 270.433 162.523 266.289 164.497C263.066 166.01 262.935 166.208 262.935 168.707C262.869 172.128 261.29 181.008 260.435 182.588C259.843 183.706 260.303 184.167 264.447 186.272C267.078 187.654 273.196 190.614 278.129 192.916C292.731 199.824 303.519 207.981 310.951 217.783C318.91 228.374 321.805 236.466 321.805 247.979C321.805 254.031 321.476 256.531 320.292 260.478C314.372 279.49 297.665 295.607 269.841 309.159Z" fill="#42D877"/>
<path d="M130.723 359.55C143.747 361.129 180.122 361.524 194.527 360.208C259.251 354.09 306.873 331.065 325.62 296.66C328.579 291.265 331.803 283.832 330.158 286.134C315.622 306.856 292.666 323.829 264.25 335.012C199.526 360.405 112.964 357.577 53.107 328.039C31.927 317.58 15.9431 304.554 2.78784 287.121C1.47235 285.279 0.22245 283.7 0.0250878 283.503C-0.171826 283.306 0.814771 285.542 2.13007 288.437C9.36547 304.488 20.2844 317.25 35.8734 328.105C42.5826 332.776 62.5133 342.512 73.1033 346.328C90.0078 352.38 109.544 356.853 130.723 359.55Z" fill="#42D877"/>
<path d="M117 130.357C117.066 142.682 132.976 147.533 139.72 137.306C141.226 135.077 141.554 133.897 141.554 130.488C141.554 127.014 141.292 126.03 139.589 123.605C138.542 122.097 136.577 120.327 135.333 119.671C133.042 118.557 128.982 117.704 127.804 118.097C127.476 118.229 126.363 118.491 125.381 118.688C121.125 119.606 117 125.375 117 130.357Z" fill="white"/>
<path d="M190.333 130.554C190.333 141.567 203.559 147.14 211.286 139.404C217.113 133.569 215.934 124.26 208.798 119.933C204.542 117.311 197.929 118.097 194 121.572C192.167 123.276 190.333 127.603 190.333 130.554Z" fill="white"/>
</svg>
